<svg width="256" height="256" viewBox="0 0 256 256" fill="none" xmlns="http://www.w3.org/2000/svg">
<path d="M114.5 214C96.6667 214 80.5 210.167 66 202.5C51.6667 194.667 40.3333 183.917 32 170.25C23.8333 156.417 19.75 140.833 19.75 123.5C19.75 106.167 23.8333 90.6667 32 77C40.3333 63.1667 51.6667 52.4167 66 44.75C80.5 36.9167 96.75 33 114.75 33C129.917 33 143.583 35.6667 155.75 41C168.083 46.3334 178.417 54 186.75 64L160.75 88C148.917 74.3334 134.25 67.5 116.75 67.5C105.917 67.5 96.25 69.9167 87.75 74.75C79.25 79.4167 72.5833 86 67.75 94.5C63.0833 103 60.75 112.667 60.75 123.5C60.75 134.333 63.0833 144 67.75 152.5C72.5833 161 79.25 167.667 87.75 172.5C96.25 177.167 105.917 179.5 116.75 179.5C134.25 179.5 148.917 172.583 160.75 158.75L186.75 182.75C178.417 192.917 168.083 200.667 155.75 206C143.417 211.333 129.667 214 114.5 214Z" fill="black"/>
<ellipse cx="181" cy="180.5" rx="57" ry="56.5" fill="#8ED74F"/>
<path d="M161.307 206.164C160.011 206.596 158.772 206.516 157.592 205.926C156.411 205.336 155.6 204.376 155.157 203.048C154.704 201.688 154.783 200.45 155.395 199.332C155.996 198.183 156.944 197.393 158.241 196.961C159.538 196.529 160.771 196.592 161.941 197.151C163.1 197.678 163.907 198.622 164.36 199.982C164.802 201.31 164.728 202.564 164.138 203.745C163.547 204.925 162.604 205.732 161.307 206.164ZM170.484 178.072C170.958 176.544 171.834 175.216 173.109 174.088C174.416 172.95 176.05 172.054 178.011 171.401L180.287 178.232C179.444 178.442 178.88 178.595 178.595 178.69C176.476 179.396 175.016 180.55 174.215 182.152C173.403 183.723 173.392 185.694 174.183 188.066L178.197 200.114L170.797 202.58L162.294 177.059L169.362 174.704L170.484 178.072ZM208.433 161.686L216.937 187.207L209.916 189.546L208.904 186.51C208.293 187.944 207.407 189.187 206.248 190.241C205.077 191.263 203.702 192.038 202.121 192.565C198.768 193.682 195.791 193.602 193.187 192.327C190.584 191.051 188.65 188.516 187.385 184.721L182.581 170.3L189.981 167.834L194.422 181.164C195.792 185.275 198.2 186.756 201.647 185.608C203.418 185.018 204.651 183.974 205.347 182.478C206.033 180.949 205.996 179.047 205.237 176.77L201.033 164.152L208.433 161.686Z" fill="black"/>
</svg>
