<svg width="32" height="32" viewBox="0 0 32 32" fill="none" xmlns="http://www.w3.org/2000/svg">
<circle cx="16" cy="16" r="15.5" stroke="#8ED74F"/>
<path d="M9.24161 15.8271L12.6653 17.4983C12.7977 17.5622 12.9541 17.5577 13.0806 17.4851L16.1281 15.7499L14.2835 17.3508C14.1896 17.4325 14.1359 17.5491 14.1359 17.6719V21.5714C14.1359 21.9828 14.672 22.1559 14.9234 21.8291L16.4034 19.9019L20.0633 21.9434C20.32 22.0879 20.649 21.9428 20.7085 21.6554L22.9912 10.5141C23.0594 10.1792 22.7193 9.90614 22.4032 10.0307L9.27778 15.0443C8.92544 15.1791 8.90269 15.6619 9.24161 15.8271ZM21.9761 11.114L19.97 20.9052L16.502 18.9706C16.313 18.8649 16.0697 18.9118 15.9356 19.0855L15.0109 20.2893V17.8645L19.9992 13.5359C20.3941 13.1937 19.9403 12.5852 19.4893 12.8446L12.845 16.6281L10.5162 15.4917L21.9761 11.114Z" fill="black"/>
</svg>
