<svg width="32" height="32" viewBox="0 0 32 32" fill="none" xmlns="http://www.w3.org/2000/svg">
<circle cx="16" cy="16" r="15.5" stroke="#8ED74F"/>
<path d="M23.2891 18.4899C22.941 18.0728 22.5478 17.7004 22.1676 17.3403C22.0339 17.2137 21.8957 17.0828 21.7626 16.9528C21.7625 16.9528 21.7625 16.9527 21.7625 16.9527C21.5834 16.7781 21.4957 16.6541 21.4866 16.5625C21.4776 16.4725 21.5391 16.339 21.6806 16.1416C21.8921 15.8447 22.1176 15.5474 22.3357 15.2598C22.5296 15.0042 22.73 14.7398 22.9221 14.474L22.9653 14.4143C23.3401 13.8955 23.7277 13.359 23.9353 12.7053C23.9947 12.5178 24.0563 12.2404 23.9077 11.9969C23.7591 11.7534 23.4835 11.6812 23.2893 11.6481C23.1945 11.6319 23.1045 11.6305 23.0208 11.6305L20.5893 11.6284C20.1689 11.6214 19.8773 11.8206 19.7184 12.2208C19.5912 12.5403 19.441 12.9107 19.2669 13.262C18.934 13.9402 18.5109 14.7214 17.8976 15.3722L17.8704 15.4012C17.8286 15.4458 17.7604 15.5186 17.7254 15.5354C17.6589 15.4936 17.5823 15.2548 17.5858 15.1297C17.5859 15.1266 17.5859 15.1236 17.5859 15.1205L17.5837 12.311C17.5837 12.2968 17.5827 12.2825 17.5808 12.2683C17.5263 11.8675 17.42 11.4657 16.7856 11.3405C16.7653 11.3365 16.7446 11.3345 16.7239 11.3345H14.1947C13.7188 11.3345 13.4671 11.5524 13.2653 11.7886C13.2069 11.8575 13.0517 12.0404 13.1308 12.2639C13.2108 12.4902 13.4492 12.5353 13.5274 12.5501C13.8031 12.6024 13.9456 12.7582 13.9897 13.056C14.0769 13.6347 14.0876 14.2537 14.0234 15.0032C14.0055 15.2044 13.9722 15.3574 13.9184 15.4846C13.9036 15.5198 13.8905 15.5416 13.8814 15.5544C13.8668 15.5486 13.8442 15.5373 13.8128 15.5158C13.6191 15.3833 13.4731 15.1773 13.332 14.9781C12.7682 14.182 12.2939 13.3029 11.8819 12.2899C11.7123 11.8748 11.3933 11.6429 10.9845 11.6369C10.2055 11.624 9.48498 11.6243 8.78261 11.6379C8.45132 11.6437 8.21901 11.748 8.09201 11.9479C7.96485 12.1483 7.96951 12.4037 8.10588 12.7073C9.08076 14.8751 9.96595 16.4521 10.976 17.8207C11.6871 18.7842 12.403 19.453 13.2288 19.9255C14.0965 20.4219 15.0751 20.6652 16.2104 20.6652C16.3394 20.6652 16.4708 20.662 16.6039 20.6557C17.3043 20.6238 17.5893 20.3452 17.6204 19.663C17.6378 19.3025 17.6779 19.0104 17.8171 18.7567C17.8561 18.6856 17.9 18.638 17.9346 18.6293C17.9715 18.6201 18.0367 18.6426 18.1093 18.6898C18.242 18.776 18.3563 18.8928 18.4503 18.9954C18.5455 19.0997 18.6418 19.2074 18.735 19.3116C18.9332 19.5334 19.1381 19.7627 19.3529 19.9815C19.8386 20.4766 20.3986 20.7037 21.0178 20.6561L23.243 20.6571C23.2431 20.6571 23.2431 20.6571 23.2431 20.6571C23.2502 20.6571 23.2573 20.6569 23.2643 20.6564C23.521 20.6394 23.7429 20.4973 23.8732 20.2665C24.0301 19.9886 24.0277 19.6367 23.8667 19.3246C23.6987 19.0002 23.4808 18.721 23.2891 18.4899ZM23.3182 19.9531C23.2875 20.0074 23.2496 20.0174 23.2301 20.0197L21.0054 20.0187C21.0053 20.0187 21.0053 20.0187 21.0052 20.0187C20.9964 20.0187 20.9876 20.019 20.9789 20.0198C20.5406 20.0563 20.1681 19.9022 19.8078 19.535C19.6035 19.3268 19.4035 19.1032 19.2102 18.8869C19.116 18.7815 19.0186 18.6724 18.9207 18.5653C18.7993 18.4328 18.6493 18.2804 18.4565 18.1552C18.1679 17.9679 17.9287 17.9735 17.7789 18.0113C17.6307 18.0486 17.42 18.1552 17.2583 18.4503C17.0488 18.8322 17.0026 19.2441 16.9838 19.6333C16.9729 19.8713 16.9326 19.9341 16.9158 19.9501C16.8938 19.971 16.8202 20.0079 16.5745 20.0191C15.394 20.0746 14.4033 19.8632 13.5454 19.3723C12.7991 18.9453 12.1456 18.332 11.4889 17.4422C10.5068 16.1116 9.64276 14.5708 8.68729 12.4461C8.65267 12.3691 8.64198 12.3211 8.63889 12.2954C8.66326 12.2874 8.71089 12.2768 8.79439 12.2753C9.48964 12.2618 10.2026 12.2614 10.9746 12.2743C11.0802 12.2759 11.2006 12.3076 11.2917 12.5306C11.7221 13.589 12.2194 14.5101 12.8119 15.3466C12.9692 15.5686 13.165 15.845 13.4528 16.0419C13.7164 16.2224 13.9303 16.2138 14.0633 16.1748C14.1965 16.1357 14.3812 16.0273 14.5057 15.7327C14.5859 15.5428 14.6345 15.3289 14.6585 15.0587C14.7272 14.2571 14.715 13.5906 14.6202 12.9619C14.5534 12.5115 14.3209 12.1861 13.9545 12.02C14.0196 11.9861 14.0929 11.972 14.1947 11.972H16.6909C16.8313 12.0035 16.8591 12.0405 16.8687 12.0531C16.9091 12.1069 16.9322 12.2341 16.9464 12.3335L16.9485 15.1171C16.9429 15.384 17.0725 15.9758 17.5141 16.1381C17.5177 16.1394 17.5214 16.1406 17.525 16.1418C17.927 16.2732 18.193 15.9894 18.3357 15.837L18.3611 15.8099C19.0329 15.0969 19.4852 14.2639 19.8386 13.544C20.0228 13.1723 20.1788 12.7878 20.3107 12.4564C20.3767 12.2901 20.4368 12.2628 20.5801 12.2658C20.5821 12.2659 20.584 12.2659 20.586 12.2659L23.0206 12.268C23.0772 12.268 23.1363 12.2687 23.1821 12.2765C23.2981 12.2963 23.3459 12.3203 23.3617 12.3303C23.3633 12.3488 23.3629 12.4019 23.3278 12.5128C23.1513 13.0687 22.81 13.541 22.4487 14.041L22.4055 14.1008C22.2178 14.3606 22.0196 14.6219 21.8279 14.8747C21.607 15.166 21.3786 15.4671 21.1621 15.7711C20.6991 16.417 20.7398 16.8456 21.3176 17.4091C21.4541 17.5424 21.594 17.675 21.7294 17.8032C22.1132 18.1667 22.4757 18.51 22.7992 18.8977C22.9686 19.1019 23.1606 19.3471 23.3006 19.6174C23.3736 19.7588 23.3557 19.8867 23.3182 19.9531Z" fill="black"/>
<path d="M10.3243 13.3009C10.2775 13.2083 10.2311 13.1154 10.1851 13.0224C10.1071 12.8646 9.91611 12.7998 9.7582 12.8778C9.60039 12.9557 9.53564 13.1469 9.6136 13.3047C9.66045 13.3995 9.70773 13.4941 9.75539 13.5885C9.81148 13.6995 9.9237 13.7635 10.0401 13.7635C10.0884 13.7635 10.1375 13.7524 10.1836 13.7292C10.3407 13.6497 10.4037 13.458 10.3243 13.3009Z" fill="black"/>
<path d="M12.3236 16.6076C11.801 15.8995 11.312 15.1304 10.8289 14.2564C10.7438 14.1023 10.5498 14.0465 10.3958 14.1316C10.2418 14.2168 10.1859 14.4107 10.271 14.5647C10.7678 15.4634 11.2714 16.2554 11.8108 16.9862C11.8733 17.0709 11.9697 17.1156 12.0674 17.1156C12.1332 17.1156 12.1995 17.0954 12.2564 17.0533C12.398 16.9488 12.4281 16.7493 12.3236 16.6076Z" fill="black"/>
</svg>
